<svg version="1.1" preserveAspectRatio="none" xmlns="http://www.w3.org/2000/svg" width="500" height="500" viewBox="0 0 500 500"><rect width="100%" height="100%" fill="#FBE3EE" fill-opacity="1"/><svg viewBox="41.0476 71.2427 380.9175 172.2753" width="417" height="188.59411841146704" x="41.5px" y="155.7029px" xmlns="http://www.w3.org/2000/svg" xmlns:xlink="http://www.w3.org/1999/xlink" preserveAspectRatio="none"><defs></defs><style>.companyName {fill:#480933;fill-opacity:1;}.icon1 {fill:#C7BEE5;fill-opacity:1;}.icon2 {fill:#DF99BF;fill-opacity:1;}.icon3 {fill:#480933;fill-opacity:1;}.icon3-str {stroke:#480933;stroke-opacity:1;}</style><g opacity="1" transform="rotate(0 174.3687 71.2427)">
<svg width="114.2753" height="114.2753" x="174.3687" y="71.2427" version="1.1" preserveAspectRatio="none" viewBox="0 0 96 96">
  <g transform="matrix(1 0 0 1 0 0)" class="icon1"><g transform="translate(0,-956.36219)"><path style="" d="M 48 0 C 21.502177 0 0 21.5022 0 48 C 0 74.4979 21.502177 96 48 96 C 74.497823 96 96 74.4979 96 48 C 96 21.5022 74.497823 0 48 0 z M 48 2 C 73.416943 2 94 22.58309 94 48 C 94 73.417 73.416943 94 48 94 C 22.583057 94 2 73.417 2 48 C 2 22.58309 22.583057 2 48 2 z M 44 20 L 44 46 L 52 46 L 52 20 L 44 20 z M 32 28 L 32 46 L 40 46 L 40 28 L 32 28 z M 68 30 L 68 46 L 76 46 L 76 30 L 68 30 z M 20 35 L 20 46 L 28 46 L 28 35 L 20 35 z M 56 37 L 56 46 L 64 46 L 64 37 L 56 37 z M 19.035156 47 C 18.462053 47 18 47.431297 18 47.966797 L 18 48.033203 C 18 48.568699 18.462053 48.9997 19.035156 49 L 20 49 L 20 49.814453 L 20.814453 49 L 22.228516 49 L 20 51.228516 L 20 52.642578 L 23.642578 49 L 25.056641 49 L 20 54.056641 L 20 55.470703 L 26.470703 49 L 27.884766 49 L 20 56.884766 L 20 58.298828 L 28 50.298828 L 28 49 L 32 49 L 32 50.119141 L 33.119141 49 L 34.533203 49 L 32 51.533203 L 32 52.947266 L 35.947266 49 L 37.361328 49 L 32.232422 54.130859 L 32 54.363281 L 32 55.777344 L 32.939453 54.837891 L 38.775391 49 L 44 49 L 44 50.119141 L 45.119141 49 L 46.533203 49 L 44 51.533203 L 44 52.947266 L 47.947266 49 L 49.361328 49 L 44.232422 54.130859 L 44 54.363281 L 44 55.777344 L 44.939453 54.837891 L 50.775391 49 L 56 49 L 56 50.119141 L 57.119141 49 L 58.533203 49 L 56 51.533203 L 56 52.947266 L 59.947266 49 L 61.361328 49 L 56.232422 54.130859 L 56 54.363281 L 56 55.777344 L 56.939453 54.837891 L 62.775391 49 L 68 49 L 68 50.119141 L 69.119141 49 L 70.533203 49 L 68 51.533203 L 68 52.947266 L 71.947266 49 L 73.361328 49 L 68.232422 54.130859 L 68 54.363281 L 68 55.777344 L 68.939453 54.837891 L 74.775391 49 L 76.964844 49 C 77.537948 49 78 48.568703 78 48.033203 L 78 47.966797 C 78 47.431301 77.537948 47 76.964844 47 L 19.035156 47 z M 40 49.191406 L 33.646484 55.544922 L 32.232422 56.958984 L 32 57.191406 L 32 58.605469 L 32.939453 57.666016 L 34.353516 56.251953 L 40 50.605469 L 40 49.191406 z M 52 49.191406 L 45.646484 55.544922 L 44.232422 56.958984 L 44 57.191406 L 44 58.605469 L 44.939453 57.666016 L 46.353516 56.251953 L 52 50.605469 L 52 49.191406 z M 64 49.191406 L 57.646484 55.544922 L 56.232422 56.958984 L 56 57.191406 L 56 58.605469 L 56.939453 57.666016 L 58.353516 56.251953 L 64 50.605469 L 64 49.191406 z M 76 49.191406 L 69.646484 55.544922 L 68.232422 56.958984 L 68 57.191406 L 68 58.605469 L 68.939453 57.666016 L 70.353516 56.251953 L 76 50.605469 L 76 49.191406 z M 28 51.712891 L 20 59.712891 L 20 61 L 20.185547 61 L 20.15625 60.970703 L 28 53.126953 L 28 51.712891 z M 40 52.019531 L 35.060547 56.958984 L 33.646484 58.373047 L 32 60.019531 L 32 61.433594 L 35.767578 57.666016 L 40 53.433594 L 40 52.019531 z M 52 52.019531 L 47.060547 56.958984 L 45.646484 58.373047 L 44 60.019531 L 44 61.433594 L 47.767578 57.666016 L 52 53.433594 L 52 52.019531 z M 64 52.019531 L 59.060547 56.958984 L 57.646484 58.373047 L 57.019531 59 L 58.433594 59 L 59.767578 57.666016 L 64 53.433594 L 64 52.019531 z M 76 52.019531 L 71.060547 56.958984 L 69.646484 58.373047 L 68 60.019531 L 68 61.433594 L 71.767578 57.666016 L 76 53.433594 L 76 52.019531 z M 28 54.541016 L 21.541016 61 L 22.955078 61 L 28 55.955078 L 28 54.541016 z M 40 54.847656 L 36.474609 58.373047 L 32 62.847656 L 32 64.261719 L 37.181641 59.080078 L 40 56.261719 L 40 54.847656 z M 52 54.847656 L 48.474609 58.373047 L 44 62.847656 L 44 64.261719 L 49.181641 59.080078 L 52 56.261719 L 52 54.847656 z M 64 54.847656 L 60.474609 58.373047 L 59.847656 59 L 61.261719 59 L 64 56.261719 L 64 54.847656 z M 76 54.847656 L 72.474609 58.373047 L 68 62.847656 L 68 64.261719 L 73.181641 59.080078 L 76 56.261719 L 76 54.847656 z M 28 57.369141 L 24.369141 61 L 25.783203 61 L 28 58.783203 L 28 57.369141 z M 40 57.675781 L 37.888672 59.787109 L 32 65.675781 L 32 67.091797 L 38.595703 60.494141 L 40 59.089844 L 40 57.675781 z M 52 57.675781 L 49.888672 59.787109 L 44 65.675781 L 44 67.091797 L 50.595703 60.494141 L 52 59.089844 L 52 57.675781 z M 64 57.675781 L 62.675781 59 L 64 59 L 64 57.675781 z M 76 57.675781 L 73.888672 59.787109 L 68 65.675781 L 68 66 L 69.091797 66 L 74.595703 60.494141 L 76 59.089844 L 76 57.675781 z M 28 60.199219 L 27.199219 61 L 28 61 L 28 60.199219 z M 40 60.503906 L 39.302734 61.201172 L 32.505859 68 L 33.919922 68 L 40 61.917969 L 40 60.503906 z M 52 60.503906 L 51.302734 61.201172 L 44 68.505859 L 44 69.919922 L 52 61.917969 L 52 60.503906 z M 76 60.503906 L 75.302734 61.201172 L 70.505859 66 L 71.919922 66 L 76 61.917969 L 76 60.503906 z M 40 63.332031 L 35.333984 68 L 36.746094 68 L 40 64.746094 L 40 63.332031 z M 52 63.332031 L 44 71.333984 L 44 72.748047 L 52 64.746094 L 52 63.332031 z M 76 63.332031 L 73.332031 66 L 74.746094 66 L 76 64.746094 L 76 63.332031 z M 40 66.160156 L 38.160156 68 L 39.574219 68 L 40 67.574219 L 40 66.160156 z M 52 66.160156 L 44 74.162109 L 44 75.576172 L 52 67.574219 L 52 66.160156 z M 52 68.990234 L 44.990234 76 L 46.404297 76 L 52 70.404297 L 52 68.990234 z M 52 71.818359 L 47.818359 76 L 49.232422 76 L 52 73.232422 L 52 71.818359 z M 52 74.646484 L 50.646484 76 L 52 76 L 52 74.646484 z " transform="translate(0,956.36219)"></path></g></g>
</svg>
</g><g opacity="1" transform="rotate(0 41.0476 209.518)">
<svg width="380.9175" height="34" x="41.0476" y="209.518" version="1.1" preserveAspectRatio="none" viewBox="0.8 -23.84 288.59999999999997 25.759999999999998">
  <g transform="matrix(1 0 0 1 0 0)" class="companyName"><path id="id-D6z1nYkh14" d="M17.32-8.08L17.32-8.08Q17.28-6.88 17.24-6.18Q17.20-5.48 17.14-5.02Q17.08-4.56 16.94-4.20Q16.80-3.84 16.56-3.32L16.56-3.32Q15.72-1.40 13.96-0.36Q12.20 0.68 9.48 0.68L9.48 0.68Q8.52 0.68 7.96 0.68Q7.40 0.68 6.74 0.48Q6.08 0.28 5.08-0.22Q4.08-0.72 2.24-1.68L2.24-1.68Q0.80-2.44 0.80-3.60L0.80-3.60Q0.80-4.32 1.28-4.90Q1.76-5.48 2.52-5.56L2.52-5.56Q5.40-4.64 6.48-3.64L6.48-3.64Q7.92-3 9.96-3L9.96-3Q11.68-3 12.72-4L12.72-4Q12.88-4.44 13.06-5.24Q13.24-6.04 13.24-7.16L13.24-7.16Q13.24-8.04 12.72-8.62Q12.20-9.20 11.40-9.64Q10.60-10.08 9.62-10.44Q8.64-10.80 7.76-11.20L7.76-11.20Q7.08-11.48 6.40-11.84Q5.72-12.20 5.04-12.76L5.04-12.76Q3.32-15.68 3.32-16.88L3.32-16.88Q3.32-19.88 6.88-22.60L6.88-22.60Q10.20-23.84 11.40-23.84L11.40-23.84Q11.84-23.84 12.56-23.52Q13.28-23.20 13.98-22.72Q14.68-22.24 15.18-21.66Q15.68-21.08 15.68-20.52L15.68-20.52Q15.68-19.84 15.14-19.34Q14.60-18.84 13.76-18.84L13.76-18.84Q13.68-18.84 13.32-19.08Q12.96-19.32 12.46-19.60Q11.96-19.88 11.46-20.12Q10.96-20.36 10.64-20.36L10.64-20.36Q9.96-20.36 9.34-20.04Q8.72-19.72 8.24-19.24Q7.76-18.76 7.48-18.18Q7.20-17.60 7.20-17.12L7.20-17.12Q7.20-16.20 7.76-15.48Q8.32-14.76 9.12-14.32L9.12-14.32L11.64-13.44Q12.60-13.08 13.52-12.52Q14.44-11.96 15.20-11.26Q15.96-10.56 16.52-9.74Q17.08-8.92 17.32-8.08Z M40.32 0.36L40.32 0.36Q40.16 1.12 38.84 1.12L38.84 1.12Q37.76 1.12 37.28 0.64L37.28 0.64Q37.08-0.04 36.72-1.02Q36.36-2 35.88-3.28L35.88-3.28Q35.64-4.84 35.42-5.48Q35.20-6.12 34.88-6.44L34.88-6.44Q34.28-6.40 33.16-6.30Q32.04-6.20 30.80-6.06Q29.56-5.92 28.48-5.70Q27.40-5.48 26.92-5.24L26.92-5.24Q26.72-4.24 26.44-3.04Q26.16-1.84 25.76-0.48L25.76-0.48Q25.64-0.08 25.20 0.10Q24.76 0.28 24.12 0.28L24.12 0.28Q23.48 0.28 23.02 0.06Q22.56-0.16 22.56-0.60L22.56-0.60Q22.56-1.40 23.52-5.36L23.52-5.36Q23.48-5.52 23.48-5.84L23.48-5.84Q23.48-6.36 23.62-7.14Q23.76-7.92 23.92-8.64Q24.08-9.36 24.22-9.88Q24.36-10.40 24.36-10.44L24.36-10.44L25.64-14Q25.72-14.52 26.06-15.40Q26.40-16.28 26.80-17.20Q27.20-18.12 27.56-18.94Q27.92-19.76 28.04-20.20L28.04-20.20Q28.40-21.52 29.96-21.52L29.96-21.52Q31.24-21.52 31.60-20.56L31.60-20.56Q31.60-20.56 31.84-20.12Q32.08-19.68 32.48-19Q32.88-18.32 33.34-17.50Q33.80-16.68 34.20-15.94Q34.60-15.20 34.88-14.62Q35.16-14.04 35.20-13.84L35.20-13.84Q35.52-13.08 36-12.10Q36.48-11.12 37.16-9.92L37.16-9.92Q37.56-9.40 37.90-8.54Q38.24-7.68 38.52-6.80Q38.80-5.92 39-5.20Q39.20-4.48 39.36-4.24L39.36-4.24Q39.36-3.96 39.54-3.38Q39.72-2.80 39.90-2.16Q40.08-1.52 40.24-0.96Q40.40-0.40 40.40-0.16L40.40-0.16Q40.40 0.04 40.32 0.36ZM33.32-9.72L33.32-9.72Q33-10.68 32.74-11.36Q32.48-12.04 32.14-12.72Q31.80-13.40 31.36-14.26Q30.92-15.12 30.24-16.48L30.24-16.48Q29.32-14.80 28.92-12.60L28.92-12.60Q28.08-10.96 27.72-9.12L27.72-9.12Q28.96-9.48 29.72-9.48L29.72-9.48Q30-9.48 30.12-9.44L30.12-9.44Q30.80-9.60 31.76-9.60Q32.72-9.60 33.32-9.72Z M62.08-2.88L62.08-2.88Q62.08-2.20 61.44-1.66Q60.80-1.12 60.12-1.12L60.12-1.12Q59.92-1.12 59.84-1.10Q59.76-1.08 59.58-1.22Q59.40-1.36 59-1.76Q58.60-2.16 57.76-3L57.76-3Q56.92-3.88 56.34-4.56Q55.76-5.24 55.44-5.72L55.44-5.72Q54.48-6.24 53.88-6.76Q53.28-7.28 52.76-7.78Q52.24-8.28 51.64-8.82Q51.04-9.36 50.04-9.96L50.04-9.96Q49.56-9.68 49.44-9.56L49.44-9.56Q49.44-7.20 49.08-5.60L49.08-5.60Q49.08-5.28 49.10-4.74Q49.12-4.20 49.16-3.62Q49.20-3.04 49.22-2.54Q49.24-2.04 49.24-1.84L49.24-1.84Q49.24-0.80 49 0.04L49 0.04Q48.20 0.52 47.28 0.52L47.28 0.52Q45.88 0.52 45.52-0.56L45.52-0.56Q45.48-0.92 45.44-1.90Q45.40-2.88 45.36-4.52L45.36-4.52Q45.44-4.68 45.48-5.38Q45.52-6.08 45.56-6.86Q45.60-7.64 45.62-8.30Q45.64-8.96 45.64-9.08L45.64-9.08Q45.64-9.16 45.62-9.30Q45.60-9.44 45.60-9.60L45.60-9.60Q45.60-9.84 45.64-10.28Q45.68-10.72 45.70-11.18Q45.72-11.64 45.76-12.08Q45.80-12.52 45.80-12.76L45.80-12.76L45.80-13.28Q45.88-13.52 45.96-14.22Q46.04-14.92 46.08-15.70Q46.12-16.48 46.14-17.08Q46.16-17.68 46.16-17.72L46.16-17.72L46.44-21.32Q47.08-22.68 48.28-22.68L48.28-22.68Q49.04-22.68 49.66-22.16Q50.28-21.64 50.28-21L50.28-21Q49.76-19.12 49.72-17.12L49.72-17.12Q49.76-16.96 49.76-16.74Q49.76-16.52 49.76-16.20L49.76-16.20Q49.76-15.84 49.76-15.34Q49.76-14.84 49.68-14.24L49.68-14.24Q51.12-15.52 52.70-16.52Q54.28-17.52 55.16-18L55.16-18Q55.84-18.36 56.68-18.78Q57.52-19.20 58.48-19.60L58.48-19.60L58.60-19.60Q59.20-19.60 59.82-19Q60.44-18.40 60.44-17.60L60.44-17.60Q60.44-17.08 60.08-16.70Q59.72-16.32 59.10-16Q58.48-15.68 57.68-15.32Q56.88-14.96 56-14.52L56-14.52Q55.44-14.16 54.70-13.62Q53.96-13.08 53.04-12.36L53.04-12.36Q53.36-12.12 53.74-11.78Q54.12-11.44 54.66-10.98Q55.20-10.52 55.94-9.90Q56.68-9.28 57.76-8.52L57.76-8.52Q58.28-8.04 59.04-7.28Q59.80-6.52 60.46-5.70Q61.12-4.88 61.60-4.12Q62.08-3.36 62.08-2.88Z M80.84-8.08L80.84-8.08Q80.80-6.88 80.76-6.18Q80.72-5.48 80.66-5.02Q80.60-4.56 80.46-4.20Q80.32-3.84 80.08-3.32L80.08-3.32Q79.24-1.40 77.48-0.36Q75.72 0.68 73 0.68L73 0.68Q72.04 0.68 71.48 0.68Q70.92 0.68 70.26 0.48Q69.60 0.28 68.60-0.22Q67.60-0.72 65.76-1.68L65.76-1.68Q64.32-2.44 64.32-3.60L64.32-3.60Q64.32-4.32 64.80-4.90Q65.28-5.48 66.04-5.56L66.04-5.56Q68.92-4.64 70-3.64L70-3.64Q71.44-3 73.48-3L73.48-3Q75.20-3 76.24-4L76.24-4Q76.40-4.44 76.58-5.24Q76.76-6.04 76.76-7.16L76.76-7.16Q76.76-8.04 76.24-8.62Q75.72-9.20 74.92-9.64Q74.12-10.08 73.14-10.44Q72.16-10.80 71.28-11.20L71.28-11.20Q70.60-11.48 69.92-11.84Q69.24-12.20 68.56-12.76L68.56-12.76Q66.84-15.68 66.84-16.88L66.84-16.88Q66.84-19.88 70.40-22.60L70.40-22.60Q73.72-23.84 74.92-23.84L74.92-23.84Q75.36-23.84 76.08-23.52Q76.80-23.20 77.50-22.72Q78.20-22.24 78.70-21.66Q79.20-21.08 79.20-20.52L79.20-20.52Q79.20-19.84 78.66-19.34Q78.12-18.84 77.28-18.84L77.28-18.84Q77.20-18.84 76.84-19.08Q76.48-19.32 75.98-19.60Q75.48-19.88 74.98-20.12Q74.48-20.36 74.16-20.36L74.16-20.36Q73.48-20.36 72.86-20.04Q72.24-19.72 71.76-19.24Q71.28-18.76 71-18.18Q70.72-17.60 70.72-17.12L70.72-17.12Q70.72-16.20 71.28-15.48Q71.84-14.76 72.64-14.32L72.64-14.32L75.16-13.44Q76.12-13.08 77.04-12.52Q77.96-11.96 78.72-11.26Q79.48-10.56 80.04-9.74Q80.60-8.92 80.84-8.08Z M104.88-4.12L104.88-4.12Q104.88-3.88 104.92-3.52Q104.96-3.16 105-2.76Q105.04-2.36 105.08-2.02Q105.12-1.68 105.12-1.52L105.12-1.52Q105.12 0.20 103.56 0.20L103.56 0.20Q102.28 0.20 101.76-0.64L101.76-0.64L101.40-3.52L101.40-3.84Q101.40-4.12 101.36-4.56Q101.32-5 101.26-5.44Q101.20-5.88 101.16-6.24Q101.12-6.60 101.12-6.76L101.12-6.76Q101.16-7.04 101.18-7.30Q101.20-7.56 101.20-7.84L101.20-7.84Q101.20-8.28 101.16-8.66Q101.12-9.04 101.04-9.44L101.04-9.44Q100.72-9.36 99.68-9.22Q98.64-9.08 97.12-9.08L97.12-9.08Q96.44-9.08 95.86-9.12Q95.28-9.16 94.80-9.24L94.80-9.24Q94.32-9.48 91.72-9.48L91.72-9.48Q91.64-8.56 91.60-7.78Q91.56-7 91.56-6.36L91.56-6.36Q91.56-5.04 91.76-4.36L91.76-4.36Q91.92-2.40 92.02-1.40Q92.12-0.40 92.16 0.04Q92.20 0.48 92.20 0.56Q92.20 0.64 92.20 0.76L92.20 0.76Q92.20 1.92 90.60 1.92L90.60 1.92Q90.04 1.92 89.62 1.70Q89.20 1.48 88.92 0.94Q88.64 0.40 88.48-0.56Q88.32-1.52 88.28-2.96L88.28-2.96Q88.04-3.96 88.04-5.60L88.04-5.60Q88.04-6.12 88.06-6.56Q88.08-7 88.08-7.32L88.08-7.32Q88.08-7.64 88.06-7.86Q88.04-8.08 88.04-8.24L88.04-8.24Q88.04-8.16 88.04-8.76Q88.04-9.36 88.10-10.18Q88.16-11 88.24-11.82Q88.32-12.64 88.48-13.04L88.48-13.04Q88.48-13.12 88.46-13.22Q88.44-13.32 88.44-13.44L88.44-13.44Q88.44-14.32 88.52-15Q88.60-15.68 88.70-16.32Q88.80-16.96 88.94-17.66Q89.08-18.36 89.20-19.32L89.20-19.32Q89.40-20.68 89.68-21.32Q89.96-21.96 90.96-21.96L90.96-21.96Q91.48-21.96 92.06-21.60Q92.64-21.24 92.64-20.56L92.64-20.56Q92.64-20.20 92.62-19.62Q92.60-19.04 92.52-18.14Q92.44-17.24 92.32-15.96Q92.20-14.68 92.00-12.92L92.00-12.92Q92.52-12.72 93.44-12.72L93.44-12.72Q93.76-12.72 93.98-12.74Q94.20-12.76 94.40-12.76L94.40-12.76Q94.96-12.76 95.18-12.66Q95.40-12.56 95.92-12.56L95.92-12.56Q97-12.56 97.56-12.62Q98.12-12.68 98.12-12.64L98.12-12.64L98.72-12.64Q99.52-12.64 100.22-12.70Q100.92-12.76 100.92-13.20L100.92-13.20Q100.92-14.28 100.56-16.16L100.56-16.16L100.56-16.88Q100.56-17.44 100.52-17.98Q100.48-18.52 100.36-18.96L100.36-18.96Q100.36-20.56 102.36-20.56L102.36-20.56Q103.28-20.56 103.66-19.62Q104.04-18.68 104.18-17.40Q104.32-16.12 104.34-14.78Q104.36-13.44 104.60-12.64L104.60-12.64Q104.60-11.60 104.66-10.18Q104.72-8.76 104.88-6.88L104.88-6.88Q104.84-6.68 104.84-6.40Q104.84-6.12 104.84-5.80L104.84-5.80Q104.84-5.44 104.84-5.02Q104.84-4.60 104.88-4.12Z M128.92 0.36L128.92 0.36Q128.76 1.12 127.44 1.12L127.44 1.12Q126.36 1.12 125.88 0.64L125.88 0.64Q125.68-0.04 125.32-1.02Q124.96-2 124.48-3.28L124.48-3.28Q124.24-4.84 124.02-5.48Q123.80-6.12 123.48-6.44L123.48-6.44Q122.88-6.40 121.76-6.30Q120.64-6.20 119.40-6.06Q118.16-5.92 117.08-5.70Q116.00-5.48 115.52-5.24L115.52-5.24Q115.32-4.24 115.04-3.04Q114.76-1.84 114.36-0.48L114.36-0.48Q114.24-0.08 113.80 0.10Q113.36 0.28 112.72 0.28L112.72 0.28Q112.08 0.28 111.62 0.06Q111.16-0.16 111.16-0.60L111.16-0.60Q111.16-1.40 112.12-5.36L112.12-5.36Q112.08-5.52 112.08-5.84L112.08-5.84Q112.08-6.36 112.22-7.14Q112.36-7.92 112.52-8.64Q112.68-9.36 112.82-9.88Q112.96-10.40 112.96-10.44L112.96-10.44L114.24-14Q114.32-14.52 114.66-15.40Q115.00-16.28 115.40-17.20Q115.80-18.12 116.16-18.94Q116.52-19.76 116.64-20.20L116.64-20.20Q117.00-21.52 118.56-21.52L118.56-21.52Q119.84-21.52 120.20-20.56L120.20-20.56Q120.20-20.56 120.44-20.12Q120.68-19.68 121.08-19Q121.48-18.32 121.94-17.50Q122.40-16.68 122.80-15.94Q123.20-15.20 123.48-14.62Q123.76-14.04 123.80-13.84L123.80-13.84Q124.12-13.08 124.60-12.10Q125.08-11.12 125.76-9.92L125.76-9.92Q126.16-9.40 126.50-8.54Q126.84-7.68 127.12-6.80Q127.40-5.92 127.60-5.20Q127.80-4.48 127.96-4.24L127.96-4.24Q127.96-3.96 128.14-3.38Q128.32-2.80 128.50-2.16Q128.68-1.52 128.84-0.96Q129-0.40 129-0.16L129-0.16Q129 0.04 128.92 0.36ZM121.92-9.72L121.92-9.72Q121.60-10.68 121.34-11.36Q121.08-12.04 120.74-12.72Q120.40-13.40 119.96-14.26Q119.52-15.12 118.84-16.48L118.84-16.48Q117.92-14.80 117.52-12.60L117.52-12.60Q116.68-10.96 116.32-9.12L116.32-9.12Q117.56-9.48 118.32-9.48L118.32-9.48Q118.60-9.48 118.72-9.44L118.72-9.44Q119.40-9.60 120.36-9.60Q121.32-9.60 121.92-9.72Z M155.84-0.60L155.84-0.60Q155.64 0.48 154.04 0.48L154.04 0.48Q152.92 0.48 152.52-0.28L152.52-0.28Q152.32-1.36 152.24-2.26Q152.16-3.16 152.06-4.22Q151.96-5.28 151.82-6.64Q151.68-8 151.32-10L151.32-10Q151.24-10.76 151.22-11.48Q151.20-12.20 151.16-12.88L151.16-12.88Q150.40-11.84 149.68-10.96Q148.96-10.08 148.20-9.36L148.20-9.36Q147.28-7.96 145.48-6.44L145.48-6.44L145.24-6.44Q144.40-6.44 143.62-6.82Q142.84-7.20 142.60-7.64L142.60-7.64Q142.16-8.36 141.50-9.56Q140.84-10.76 139.80-12.36L139.80-12.36L138.80-13.88Q138.60-12.84 138.38-11.26Q138.16-9.68 137.88-7.52L137.88-7.52L137.88-6.92Q137.88-6.32 137.84-5.56Q137.80-4.80 137.68-3.84L137.68-3.84L137.32 0.12Q137.20 1.28 135.44 1.28L135.44 1.28Q134.88 1.28 134.56 1.20Q134.24 1.12 134.04 0.86Q133.84 0.60 133.78 0.12Q133.72-0.36 133.72-1.20L133.72-1.20Q133.72-3.60 133.76-3.60L133.76-3.60L133.76-3.56Q133.92-3.96 134.02-4.64Q134.12-5.32 134.18-5.98Q134.24-6.64 134.26-7.14Q134.28-7.64 134.28-7.64L134.28-7.64Q134.28-7.72 134.36-8.30Q134.44-8.88 134.54-9.58Q134.64-10.28 134.72-10.94Q134.80-11.60 134.80-11.84L134.80-11.84L134.80-12.08Q134.88-13.04 134.96-14.20Q135.04-15.36 135.20-16.76L135.20-16.76L135.96-20.20Q136.60-20.72 137.84-20.72L137.84-20.72Q138.48-20.72 138.96-20.48L138.96-20.48Q139.60-19.56 140.22-18.68Q140.84-17.80 141.50-16.76Q142.16-15.72 142.96-14.36Q143.76-13 144.84-11.08L144.84-11.08Q146.48-12.60 146.84-13.48L146.84-13.48Q146.96-13.52 149.36-16.84L149.36-16.84L151.12-19.08Q151.44-19.24 152-19.24L152-19.24Q153.12-19.24 154.04-18.56L154.04-18.56Q154.76-15.24 154.76-13.84L154.76-13.84L154.76-13.48Q154.76-13.28 154.84-12.54Q154.92-11.80 155.04-10.94Q155.16-10.08 155.26-9.32Q155.36-8.56 155.44-8.28L155.44-8.28Q155.44-7.12 155.54-5.88Q155.64-4.64 155.84-3.32L155.84-3.32Q155.92-2.84 155.96-2.44Q156-2.04 156-1.68L156-1.68Q156-1.36 155.96-1.08Q155.92-0.80 155.84-0.60Z M193.16-8.08L193.16-8.08Q193.12-6.88 193.08-6.18Q193.04-5.48 192.98-5.02Q192.92-4.56 192.78-4.20Q192.64-3.84 192.40-3.32L192.40-3.32Q191.56-1.40 189.80-0.36Q188.04 0.68 185.32 0.68L185.32 0.68Q184.36 0.68 183.80 0.68Q183.24 0.68 182.58 0.48Q181.92 0.28 180.92-0.22Q179.92-0.72 178.08-1.68L178.08-1.68Q176.64-2.44 176.64-3.60L176.64-3.60Q176.64-4.32 177.12-4.90Q177.60-5.48 178.36-5.56L178.36-5.56Q181.24-4.64 182.32-3.64L182.32-3.64Q183.76-3 185.80-3L185.80-3Q187.52-3 188.56-4L188.56-4Q188.72-4.44 188.90-5.24Q189.08-6.04 189.08-7.16L189.08-7.16Q189.08-8.04 188.56-8.62Q188.04-9.20 187.24-9.64Q186.44-10.08 185.46-10.44Q184.48-10.80 183.60-11.20L183.60-11.20Q182.92-11.48 182.24-11.84Q181.56-12.20 180.88-12.76L180.88-12.76Q179.16-15.68 179.16-16.88L179.16-16.88Q179.16-19.88 182.72-22.60L182.72-22.60Q186.04-23.84 187.24-23.84L187.24-23.84Q187.68-23.84 188.40-23.52Q189.12-23.20 189.82-22.72Q190.52-22.24 191.02-21.66Q191.52-21.08 191.52-20.52L191.52-20.52Q191.52-19.84 190.98-19.34Q190.44-18.84 189.60-18.84L189.60-18.84Q189.52-18.84 189.16-19.08Q188.80-19.32 188.30-19.60Q187.80-19.88 187.30-20.12Q186.80-20.36 186.48-20.36L186.48-20.36Q185.80-20.36 185.18-20.04Q184.56-19.72 184.08-19.24Q183.60-18.76 183.32-18.18Q183.04-17.60 183.04-17.12L183.04-17.12Q183.04-16.20 183.60-15.48Q184.16-14.76 184.96-14.32L184.96-14.32L187.48-13.44Q188.44-13.08 189.36-12.52Q190.28-11.96 191.04-11.26Q191.80-10.56 192.36-9.74Q192.92-8.92 193.16-8.08Z M213.12-2.80L213.60-2.80Q214.92-2.12 214.92-0.84L214.92-0.84Q214.92 0 214.50 0.36Q214.08 0.72 213.30 0.86Q212.52 1 211.36 1.02Q210.20 1.04 208.76 1.12L208.76 1.12Q208.28 0.96 205.24 0.80L205.24 0.80Q204.80 0.84 204.40 0.86Q204 0.88 203.64 0.88L203.64 0.88Q201.48 0.88 200.68 0.24L200.68 0.24Q200.48-1.36 200.38-2.72Q200.28-4.08 200.28-5.20L200.28-5.20Q200.28-6.96 200.42-8.26Q200.56-9.56 200.56-10.60L200.56-10.60Q200.56-11.88 200.44-12.60L200.44-12.60L200.68-16.80Q200.84-18.32 201.06-19.40Q201.28-20.48 201.60-21.04L201.60-21.04Q201.84-21.36 204-21.84L204-21.84L206.56-22.40Q206.80-22.44 207.56-22.52Q208.32-22.60 209.14-22.68Q209.96-22.76 210.60-22.80Q211.24-22.84 211.20-22.84L211.20-22.84L211.36-22.84Q211.80-22.84 212.26-22.24Q212.72-21.64 212.72-20.84L212.72-20.84Q212.72-20.44 212.70-20.12Q212.68-19.80 212.44-19.58Q212.20-19.36 211.64-19.24Q211.08-19.12 210-19.08L210-19.08Q208.24-19 207.60-18.72L207.60-18.72L207.40-18.72Q206.36-18.72 204.80-18.24L204.80-18.24Q204.64-18.04 204.56-17.54Q204.48-17.04 204.44-16.50Q204.40-15.96 204.38-15.58Q204.36-15.20 204.36-15.32L204.36-15.32Q204.32-15.12 204.30-14.92Q204.28-14.72 204.28-14.40L204.28-14.40Q204.28-14.12 204.30-13.78Q204.32-13.44 204.36-13.04L204.36-13.04Q205.60-13.16 206.38-13.30Q207.16-13.44 207.60-13.44L207.60-13.44Q208.44-13.44 209.24-13.48Q210.04-13.52 210.66-13.38Q211.28-13.24 211.64-12.82Q212-12.40 212-11.48L212-11.48Q212-10.44 211.34-10.12Q210.68-9.80 209.04-9.76L209.04-9.76Q207.12-9.68 206.72-9.60L206.72-9.60Q206.48-9.60 206.22-9.62Q205.96-9.64 205.64-9.64L205.64-9.64Q205.44-9.64 205.18-9.66Q204.92-9.68 204.68-9.66Q204.44-9.64 204.26-9.50Q204.08-9.36 204.08-9L204.08-9Q204.08-8.76 204.10-8.38Q204.12-8 204.12-7.68L204.12-7.68Q204.12-7.20 204.10-6.72Q204.08-6.24 204.06-5.70Q204.04-5.16 204.02-4.48Q204-3.80 204-2.88L204-2.88Q204.24-2.84 204.94-2.80Q205.64-2.76 206.42-2.72Q207.20-2.68 207.92-2.62Q208.64-2.56 208.88-2.52L208.88-2.52Q208.92-2.52 209.44-2.56Q209.96-2.60 210.96-2.68L210.96-2.68Q212.32-2.80 213.12-2.80L213.12-2.80Z M232.84-2.80L233.32-2.80Q234.64-2.12 234.64-0.84L234.64-0.84Q234.64 0 234.22 0.36Q233.80 0.72 233.02 0.86Q232.24 1 231.08 1.02Q229.92 1.04 228.48 1.12L228.48 1.12Q228 0.96 224.96 0.80L224.96 0.80Q224.52 0.84 224.12 0.86Q223.72 0.88 223.36 0.88L223.36 0.88Q221.20 0.88 220.40 0.24L220.40 0.24Q220.20-1.36 220.10-2.72Q220-4.08 220-5.20L220-5.20Q220-6.96 220.14-8.26Q220.28-9.56 220.28-10.60L220.28-10.60Q220.28-11.88 220.16-12.60L220.16-12.60L220.40-16.80Q220.56-18.32 220.78-19.40Q221-20.48 221.32-21.04L221.32-21.04Q221.56-21.36 223.72-21.84L223.72-21.84L226.28-22.40Q226.52-22.44 227.28-22.52Q228.04-22.60 228.86-22.68Q229.68-22.76 230.32-22.80Q230.96-22.84 230.92-22.84L230.92-22.84L231.08-22.84Q231.52-22.84 231.98-22.24Q232.44-21.64 232.44-20.84L232.44-20.84Q232.44-20.44 232.42-20.12Q232.40-19.80 232.16-19.58Q231.92-19.36 231.36-19.24Q230.80-19.12 229.72-19.08L229.72-19.08Q227.96-19 227.32-18.72L227.32-18.72L227.12-18.72Q226.08-18.72 224.52-18.24L224.52-18.24Q224.36-18.04 224.28-17.54Q224.20-17.04 224.16-16.50Q224.12-15.96 224.10-15.58Q224.08-15.20 224.08-15.32L224.08-15.32Q224.04-15.12 224.02-14.92Q224-14.72 224-14.40L224-14.40Q224-14.12 224.02-13.78Q224.04-13.44 224.08-13.04L224.08-13.04Q225.32-13.16 226.10-13.30Q226.88-13.44 227.32-13.44L227.32-13.44Q228.16-13.44 228.96-13.48Q229.76-13.52 230.38-13.38Q231-13.24 231.36-12.82Q231.72-12.40 231.72-11.48L231.72-11.48Q231.72-10.44 231.06-10.12Q230.40-9.80 228.76-9.76L228.76-9.76Q226.84-9.68 226.44-9.60L226.44-9.60Q226.20-9.60 225.94-9.62Q225.68-9.64 225.36-9.64L225.36-9.64Q225.16-9.64 224.90-9.66Q224.64-9.68 224.40-9.66Q224.16-9.64 223.98-9.50Q223.80-9.36 223.80-9L223.80-9Q223.80-8.76 223.82-8.38Q223.84-8 223.84-7.68L223.84-7.68Q223.84-7.20 223.82-6.72Q223.80-6.24 223.78-5.70Q223.76-5.16 223.74-4.48Q223.72-3.80 223.72-2.88L223.72-2.88Q223.96-2.84 224.66-2.80Q225.36-2.76 226.14-2.72Q226.92-2.68 227.64-2.62Q228.36-2.56 228.60-2.52L228.60-2.52Q228.64-2.52 229.16-2.56Q229.68-2.60 230.68-2.68L230.68-2.68Q232.04-2.80 232.84-2.80L232.84-2.80Z M254.76-1.44L254.76-1.44Q254.76-0.72 254.12-0.10Q253.48 0.52 252.84 0.52L252.84 0.52Q252.52 0.52 252.32 0.32L252.32 0.32Q252.28 0.32 251.96-0.08Q251.64-0.48 251.20-1.08Q250.76-1.68 250.24-2.36Q249.72-3.04 249.28-3.64Q248.84-4.24 248.58-4.62Q248.32-5 248.36-4.96L248.36-4.96Q248.28-5.20 247.96-5.72Q247.64-6.24 247.26-6.82Q246.88-7.40 246.56-7.90Q246.24-8.40 246.20-8.52L246.20-8.52Q246.12-8.52 245.76-8.46Q245.40-8.40 244.96-8.34Q244.52-8.28 244.06-8.22Q243.60-8.16 243.36-8.16L243.36-8.16L243.16-8.16Q243.04-6.92 242.96-6.12Q242.88-5.32 242.88-4.92L242.88-4.92L242.88-3.68Q242.88-1.52 242.52 1L242.52 1Q242.04 1.72 241.12 1.72L241.12 1.72Q240.32 1.72 239.74 1.30Q239.16 0.88 239.16-0.16L239.16-0.16Q239.16-0.48 239.18-0.94Q239.20-1.40 239.22-1.88Q239.24-2.36 239.26-2.74Q239.28-3.12 239.28-3.24L239.28-3.24L239.28-3.44L239.56-9.48Q239.60-10 239.58-10.76Q239.56-11.52 239.64-12.52L239.64-12.52L239.96-14.92Q240.20-16.16 240.20-17.04L240.20-17.04Q240.20-17.32 240.18-17.58Q240.16-17.84 240.12-18.12L240.12-18.12Q240.12-18.12 240.24-19.52L240.24-19.52Q240.28-20.48 240.60-21.08Q240.92-21.68 242.12-21.68L242.12-21.68Q242.96-21.68 243.80-21.40L243.80-21.40Q244.60-21.48 245.22-21.48Q245.84-21.48 246.28-21.48L246.28-21.48Q246.68-21.48 247-21.46Q247.32-21.44 247.64-21.38Q247.96-21.32 248.36-21.22Q248.76-21.12 249.32-20.96L249.32-20.96L251.08-19.76Q252.56-18.60 253.06-17.44Q253.56-16.28 253.56-15L253.56-15Q253.56-14.12 253.50-13.50Q253.44-12.88 253.08-12.28Q252.72-11.68 251.96-11.04Q251.20-10.40 249.80-9.44L249.80-9.44Q250.72-8.28 251.88-6L251.88-6Q252.60-5.44 254.76-1.44ZM249.84-14.20L249.84-14.20Q249.88-14.36 249.88-14.64L249.88-14.64Q249.88-15.04 249.80-15.46Q249.72-15.88 249.44-16.30Q249.16-16.72 248.62-17.14Q248.08-17.56 247.12-17.96L247.12-17.96Q246.28-18.28 245.72-18.28L245.72-18.28Q245.56-18.24 245.28-18.20L245.28-18.20Q245.04-18.12 244.68-18.06Q244.32-18 243.88-17.92L243.88-17.92Q243.92-17.68 243.92-17.46Q243.92-17.24 243.86-16.64Q243.80-16.04 243.68-14.92Q243.56-13.80 243.40-11.80L243.40-11.80Q243.56-11.76 243.72-11.76Q243.88-11.76 244.04-11.76L244.04-11.76Q244.80-11.76 245.74-11.98Q246.68-12.20 247.52-12.54Q248.36-12.88 249-13.32Q249.64-13.76 249.84-14.20Z M276.44-20.52L276.44-20.52Q276.36-18.24 275.64-15.76Q274.92-13.28 273.90-10.96Q272.88-8.64 271.78-6.72Q270.68-4.80 269.88-3.64L269.88-3.64Q268.64-1.64 267.72-0.96L267.72-0.96Q265.88-1.08 265.28-1.80L265.28-1.80Q263.76-3.72 262.80-6.48L262.80-6.48Q262.28-7.16 261.86-7.84Q261.44-8.52 261.16-9.20L261.16-9.20L259.84-12.44Q258.12-16.20 257.92-18.60L257.92-18.60Q257.92-19.28 258.48-19.90Q259.04-20.52 259.88-20.52L259.88-20.52Q260.92-20.52 261.36-19.48Q261.80-18.44 262.28-16.88L262.28-16.88Q262.80-15.20 263.18-14.14Q263.56-13.08 263.90-12.30Q264.24-11.52 264.56-10.86Q264.88-10.20 265.32-9.36L265.32-9.36Q265.92-8.08 266.32-7.24Q266.72-6.40 267.04-5.96L267.04-5.96Q267.68-6.84 268.48-8.34Q269.28-9.84 270.04-11.46Q270.80-13.08 271.38-14.54Q271.96-16 272.16-16.84L272.16-16.84Q272.40-17.80 272.68-18.96Q272.96-20.12 273.44-21.48L273.44-21.48Q273.80-21.64 274.44-21.64L274.44-21.64Q275.92-21.64 276.44-20.52Z M288.84-0.92L288.84-0.92Q288.72-0.72 288.40-0.58Q288.08-0.44 287.74-0.38Q287.40-0.32 287.10-0.28Q286.80-0.24 286.76-0.20L286.76-0.20Q286.24-0.16 285.56-0.12Q284.88-0.08 283.96 0L283.96 0Q283.84-0.04 283.64-0.04L283.64-0.04Q283.48-0.04 283.16 0.04Q282.84 0.12 282.64 0.12L282.64 0.12Q281.32 0.12 281.32-1.40L281.32-1.40Q281.32-2.56 282.04-3L282.04-3L283.72-3.56Q283.72-4.64 283.96-6.64L283.96-6.64Q283.92-6.84 283.90-7.10Q283.88-7.36 283.88-7.68L283.88-7.68Q283.88-9.08 283.96-9.84Q284.04-10.60 284.04-10.68L284.04-10.68Q284.04-11.04 284.02-11.50Q284.00-11.96 283.94-12.74Q283.88-13.52 283.78-14.68Q283.68-15.84 283.56-17.52L283.56-17.52L282.16-17.72Q281.56-18.68 281.56-19.44L281.56-19.44Q281.56-19.88 281.68-20.18Q281.80-20.48 282.14-20.68Q282.48-20.88 283.10-20.96Q283.72-21.04 284.72-21.04L284.72-21.04Q285.24-21.04 285.68-20.96Q286.12-20.88 286.44-20.80L286.44-20.80Q287.40-20.80 288.00-20.74Q288.60-20.68 288.90-20.50Q289.20-20.32 289.30-20.02Q289.40-19.72 289.40-19.24L289.40-19.24Q289.40-18.24 288.52-17.40L288.52-17.40Q288.36-17.36 287.08-17.36L287.08-17.36Q287.12-16.76 287.16-16.32Q287.20-15.88 287.26-15.18Q287.32-14.48 287.36-13.34Q287.40-12.20 287.44-10.24L287.44-10.24Q287.44-9.32 287.42-8.66Q287.40-8 287.40-7.48L287.40-7.48Q287.40-6.44 287.44-6.32L287.44-6.32L287.28-3.68Q288.44-3.52 288.86-3.12Q289.28-2.72 289.28-1.92L289.28-1.92Q289.28-1.36 288.84-0.92Z"/></g>
</svg>
</g></svg></svg>